<?xml version="1.0" standalone="no"?>
<!DOCTYPE svg PUBLIC "-//W3C//DTD SVG 20010904//EN"
 "http://www.w3.org/TR/2001/REC-SVG-20010904/DTD/svg10.dtd">
<svg version="1.0" xmlns="http://www.w3.org/2000/svg"
 width="922.000000pt" height="344.000000pt" viewBox="0 0 922.000000 344.000000"
 preserveAspectRatio="xMidYMid meet">

<g transform="translate(0.000000,344.000000) scale(0.100000,-0.100000)"
fill="#000000" stroke="none">
<path d="M520 2050 l0 -890 130 0 130 0 0 304 0 303 51 94 c65 119 80 142 85
137 2 -3 24 -63 48 -134 47 -137 191 -552 223 -644 l19 -55 137 -3 c75 -1 137
-1 137 2 0 2 -72 210 -161 462 -88 253 -174 498 -191 546 l-30 88 93 172 c50
95 132 246 181 335 48 89 88 165 88 168 0 3 -62 4 -137 3 l-137 -3 -182 -335
c-101 -184 -191 -352 -200 -372 -9 -21 -20 -38 -23 -38 -3 0 -5 169 -3 375 l3
375 -130 0 -131 0 0 -890z"/>
<path d="M1650 2050 l0 -890 128 0 127 0 -2 887 -2 888 -125 3 -126 3 0 -891z"/>
<path d="M2210 2051 l0 -891 130 0 130 0 0 375 0 375 74 0 74 0 31 -92 c16
-51 71 -220 121 -375 l91 -283 135 0 c103 0 135 3 132 12 -2 7 -61 188 -132
402 l-130 389 25 16 c130 85 198 236 199 443 0 277 -98 433 -313 495 -38 11
-121 17 -309 20 l-258 5 0 -891z m497 631 c103 -53 146 -199 108 -367 -15 -67
-23 -83 -59 -120 -50 -49 -100 -65 -210 -65 l-76 0 0 291 0 292 98 -5 c73 -4
107 -10 139 -26z"/>
<path d="M3325 2050 l0 -890 128 0 127 0 0 300 0 300 67 120 c37 66 70 117 74
113 3 -5 21 -51 39 -103 27 -79 89 -259 232 -672 l20 -58 139 0 139 0 -11 27
c-6 16 -56 156 -111 313 -55 157 -137 392 -183 522 l-83 236 179 333 c98 183
179 336 179 341 0 4 -60 8 -133 8 l-134 0 -180 -332 c-100 -183 -192 -353
-205 -378 l-23 -45 -3 378 -2 377 -128 0 -127 0 0 -890z"/>
<path d="M4450 2050 l0 -890 360 0 360 0 0 115 0 115 -230 0 -230 0 0 775 0
775 -130 0 -130 0 0 -890z"/>
<path d="M5540 2932 c0 -5 -34 -195 -76 -423 -41 -228 -86 -477 -100 -554 -14
-77 -43 -237 -64 -355 -22 -118 -47 -253 -55 -300 -9 -47 -18 -98 -21 -113
l-6 -28 133 3 133 3 31 190 30 190 172 3 171 2 11 -62 c6 -35 21 -123 33 -195
l22 -133 128 0 c70 0 128 4 128 9 0 8 -7 47 -50 281 -39 212 -182 1001 -221
1215 -21 121 -41 232 -45 248 l-6 27 -174 0 c-96 0 -174 -4 -174 -8z m194
-414 c6 -71 97 -641 113 -705 5 -23 5 -23 -127 -23 l-133 0 6 43 c4 23 20 125
37 227 28 167 62 395 76 508 8 64 20 42 28 -50z"/>
<path d="M6380 2050 l0 -890 123 0 122 0 -3 457 c-1 252 -3 531 -5 620 -1 89
1 159 4 155 3 -4 16 -36 29 -72 12 -36 78 -204 145 -375 67 -170 164 -417 216
-547 l93 -238 118 0 118 0 0 890 0 890 -126 0 -126 0 4 -579 3 -579 -32 92
c-17 50 -119 309 -226 576 l-195 485 -131 3 -131 3 0 -891z"/>
<path d="M7640 2049 l0 -891 268 4 c294 5 317 9 417 73 91 58 138 126 171 250
17 64 19 112 19 565 0 436 -2 502 -17 557 -40 145 -100 223 -211 278 -96 46
-161 55 -424 55 l-223 0 0 -891z m485 642 c55 -25 101 -81 120 -145 14 -47 16
-120 13 -523 l-3 -468 -28 -52 c-17 -34 -43 -63 -69 -80 -37 -25 -51 -28 -150
-32 l-108 -3 0 661 0 661 93 0 c67 0 103 -5 132 -19z"/>
<path d="M4333 806 c-40 -18 -53 -43 -53 -102 0 -46 3 -50 71 -115 63 -61 70
-71 67 -101 -3 -29 -7 -33 -35 -36 -27 -3 -34 2 -48 28 -12 23 -22 30 -38 28
-18 -2 -22 -9 -20 -32 3 -41 42 -77 89 -82 51 -6 85 12 107 58 27 55 5 108
-73 176 -50 45 -60 59 -60 87 0 50 52 64 72 20 8 -18 19 -25 41 -25 27 0 29 2
22 28 -14 61 -83 93 -142 68z"/>
<path d="M5527 783 c7 -49 13 -55 13 -15 0 18 5 32 10 32 6 0 10 -13 10 -30 0
-16 5 -30 10 -30 6 0 10 6 10 13 0 9 3 8 9 -2 7 -11 9 -11 14 0 4 10 6 10 6 2
2 -30 21 -10 21 21 0 42 -17 56 -28 25 -8 -21 -9 -21 -14 -3 -3 13 -15 20 -36
22 -30 2 -31 2 -25 -35z"/>
<path d="M3439 803 c-1 -5 -2 -97 -3 -205 l-1 -198 83 0 c81 0 82 0 82 25 0
24 -3 25 -55 25 l-55 0 0 180 0 180 -25 0 c-14 0 -25 -3 -26 -7z"/>
<path d="M3660 605 l0 -205 30 0 30 0 0 205 0 205 -30 0 -30 0 0 -205z"/>
<path d="M3800 605 l0 -205 30 0 29 0 3 93 3 92 43 3 c37 3 42 6 42 28 0 22
-4 24 -45 24 l-45 0 0 60 0 60 61 0 c57 0 60 1 57 23 -3 21 -8 22 -90 25 l-88
3 0 -206z"/>
<path d="M4040 605 l0 -206 88 3 c82 3 87 4 90 26 3 21 0 22 -57 22 l-61 0 0
70 0 70 45 0 c41 0 45 2 45 25 0 23 -4 25 -45 25 l-45 0 0 60 0 60 55 0 c52 0
55 1 55 25 0 25 -1 25 -85 25 l-85 0 0 -205z"/>
<path d="M4530 786 c0 -21 5 -25 38 -28 l37 -3 3 -177 2 -178 30 0 30 0 0 180
0 180 35 0 c31 0 35 3 35 25 l0 25 -105 0 c-105 0 -105 0 -105 -24z"/>
<path d="M4790 805 c0 -3 18 -57 40 -121 34 -100 40 -128 40 -200 l0 -84 30 0
30 0 0 85 c0 73 5 99 40 196 22 62 40 116 40 121 0 5 -12 8 -27 6 -25 -3 -31
-11 -55 -83 -29 -89 -27 -90 -64 28 -16 52 -20 57 -46 57 -15 0 -28 -2 -28 -5z"/>
<path d="M5080 606 l0 -206 80 0 c79 0 80 0 80 25 0 23 -3 25 -50 25 l-50 0
-2 178 -3 177 -27 3 -28 3 0 -205z"/>
<path d="M5307 803 c-4 -3 -7 -96 -7 -205 l0 -198 90 0 c89 0 90 0 90 25 0 24
-3 25 -60 25 l-61 0 3 68 3 67 48 3 c42 3 47 5 47 28 0 22 -4 24 -50 24 l-51
0 3 58 3 57 58 3 c53 3 57 5 57 27 0 25 -2 25 -83 25 -46 0 -87 -3 -90 -7z"/>
</g>
</svg>
