<?xml version="1.0" standalone="no"?>
<!DOCTYPE svg PUBLIC "-//W3C//DTD SVG 20010904//EN"
 "http://www.w3.org/TR/2001/REC-SVG-20010904/DTD/svg10.dtd">
<svg version="1.0" xmlns="http://www.w3.org/2000/svg"
 width="1079.000000pt" height="1079.000000pt" viewBox="0 0 1079.000000 1079.000000"
 preserveAspectRatio="xMidYMid meet">

<g transform="translate(0.000000,1079.000000) scale(0.100000,-0.100000)"
fill="#000000" stroke="none">
<path d="M0 5395 l0 -5395 5395 0 5395 0 0 5395 0 5395 -5395 0 -5395 0 0
-5395z m2052 835 l3 -301 145 300 145 300 88 1 c48 0 87 -2 87 -3 0 -2 -58
-133 -130 -292 l-129 -288 149 -363 c83 -201 150 -367 150 -370 0 -2 -41 -3
-91 -2 l-90 3 -121 298 c-67 163 -125 297 -129 297 -4 0 -23 -29 -43 -65 l-36
-66 0 -234 0 -235 -95 0 -95 0 0 660 0 660 95 0 95 0 2 -300z m968 -360 l0
-660 -90 0 -90 0 0 660 0 660 90 0 90 0 0 -660z m782 646 c82 -18 117 -36 162
-82 58 -60 80 -130 79 -259 0 -89 -4 -121 -22 -167 -20 -53 -65 -104 -116
-134 -18 -10 -14 -28 69 -320 48 -170 90 -317 92 -326 5 -16 -4 -18 -85 -18
-77 0 -90 3 -95 18 -9 30 -144 515 -155 560 l-12 42 -69 0 -70 0 0 -310 0
-310 -95 0 -95 0 0 660 0 660 173 0 c109 0 196 -5 239 -14z m779 -293 l0 -308
151 308 151 307 84 0 c45 0 83 -4 83 -9 0 -5 -56 -135 -125 -288 -69 -153
-125 -282 -125 -286 0 -6 211 -525 284 -699 l16 -38 -92 0 -93 0 -108 268
c-60 148 -116 285 -125 306 l-17 38 -43 -76 -42 -76 0 -230 0 -230 -90 0 -90
0 0 660 0 660 90 0 90 0 1 -307z m969 -283 l0 -590 168 -2 167 -3 3 -67 3 -68
-266 0 -265 0 0 660 0 660 95 0 95 0 0 -590z m1010 585 c0 -5 265 -1252 275
-1292 5 -23 4 -23 -85 -23 -49 0 -90 3 -90 8 0 9 -48 269 -55 300 -5 22 -7 23
-138 20 l-132 -3 -30 -160 -30 -160 -88 -3 c-48 -1 -87 0 -87 4 0 9 270 1285
275 1302 3 8 31 12 95 12 49 0 90 -2 90 -5z m883 -424 l182 -425 3 427 2 427
80 0 80 0 0 -660 0 -660 -62 0 -63 0 -185 441 -185 441 -3 -441 -2 -441 -80 0
-80 0 0 660 0 661 66 -3 66 -3 181 -424z m1190 400 c78 -31 138 -90 168 -166
23 -59 24 -69 27 -420 4 -376 -1 -437 -39 -525 -28 -64 -93 -126 -159 -152
-49 -20 -78 -22 -267 -26 l-213 -4 0 662 0 662 213 -4 c192 -4 218 -7 270 -27z
m177 -1696 c0 -8 -7 -15 -15 -15 -10 0 -15 -11 -15 -35 0 -24 -5 -35 -15 -35
-10 0 -15 11 -15 35 0 24 -5 35 -15 35 -8 0 -15 7 -15 15 0 11 12 15 45 15 33
0 45 -4 45 -15z m69 -7 l8 -22 5 22 c4 14 14 22 27 22 18 0 21 -6 21 -44 0
-49 -18 -72 -27 -35 l-6 23 -9 -25 c-9 -22 -10 -23 -23 -6 -11 15 -13 16 -19
2 -12 -32 -26 -13 -26 35 0 44 3 50 20 50 12 0 24 -9 29 -22z m-2750 -123 c33
-16 61 -61 61 -95 0 -16 -6 -20 -30 -20 -21 0 -30 5 -30 17 0 9 -10 27 -22 40
-17 18 -32 23 -71 23 -61 0 -87 -20 -87 -65 0 -29 5 -35 38 -48 20 -8 64 -20
96 -27 82 -17 116 -51 116 -117 0 -60 -19 -89 -74 -114 -53 -24 -120 -24 -173
0 -45 21 -67 49 -78 99 -6 30 -5 32 22 32 24 0 31 -6 42 -36 22 -62 112 -82
177 -39 27 17 34 74 12 93 -7 6 -53 21 -101 35 -112 32 -137 53 -137 118 0 56
33 103 83 119 41 12 118 5 156 -15z m-2351 -172 l2 -182 103 -3 102 -3 3 -28
3 -28 -138 3 -138 3 -3 200 c-1 110 0 205 3 213 3 8 16 12 32 10 l28 -3 3
-182z m572 -28 l0 -215 -30 0 -30 0 0 215 0 215 30 0 30 0 0 -215z m620 185
l0 -30 -115 0 -115 0 0 -60 0 -59 103 -3 c101 -3 102 -3 102 -28 0 -25 -1 -25
-102 -28 l-103 -3 0 -94 0 -95 -30 0 -30 0 0 215 0 215 145 0 145 0 0 -30z
m610 0 l0 -30 -125 0 -125 0 0 -60 0 -60 115 0 115 0 0 -25 0 -25 -115 0 -115
0 0 -70 0 -70 125 0 125 0 0 -30 0 -30 -155 0 -155 0 0 215 0 215 155 0 155 0
0 -30z m1240 0 l0 -30 -70 0 -70 0 0 -185 0 -185 -30 0 -30 0 0 185 0 185 -70
0 -70 0 0 30 0 30 170 0 170 0 0 -30z m379 -67 c31 -50 58 -94 61 -97 3 -3 33
40 65 94 56 94 62 100 92 100 18 0 33 -3 33 -6 0 -3 -36 -61 -80 -130 l-80
-125 0 -85 0 -84 -30 0 -30 0 0 89 0 90 -75 117 c-41 65 -75 121 -75 126 0 5
14 8 32 6 28 -3 38 -13 87 -95z m591 -88 l0 -185 105 0 105 0 0 -30 0 -30
-135 0 -135 0 0 215 0 215 30 0 30 0 0 -185z m815 155 l0 -25 -122 -3 -123 -3
0 -59 0 -59 113 -3 c108 -3 112 -4 115 -25 3 -23 2 -23 -112 -23 l-116 0 0
-70 0 -70 125 0 125 0 0 -30 0 -30 -155 0 -155 0 0 215 0 216 153 -3 152 -3 0
-25z"/>
<path d="M3580 6174 l0 -217 86 6 c131 9 177 45 194 151 13 79 2 170 -24 209
-33 50 -78 67 -173 67 l-83 0 0 -216z"/>
<path d="M6432 6057 c-18 -100 -41 -226 -51 -279 l-18 -98 107 0 106 0 -51
275 c-28 151 -53 277 -56 279 -2 3 -19 -77 -37 -177z"/>
<path d="M8340 5871 l0 -521 94 0 c106 0 143 16 180 80 20 34 21 49 21 440 0
389 -1 406 -20 440 -33 55 -75 74 -182 78 l-93 4 0 -521z"/>
</g>
</svg>
